<svg aria-hidden="true" style="position: absolute; width: 0; height: 0; overflow: hidden;" version="1.1" xmlns="http://www.w3.org/2000/svg" xmlns:xlink="http://www.w3.org/1999/xlink">
<defs>
<symbol id="icon-arrow-bold-right" viewBox="0 0 20 20">
<path d="M17.5 10l-7.5 7.5v-3.5h-7v-8h7v-3.5l7.5 7.5z"></path>
</symbol>
<symbol id="icon-arrow-down" viewBox="0 0 20 20">
<path d="M10 17.5l-6.5-6.5h3.5v-8h6v8h3.5l-6.5 6.5z"></path>
</symbol>
<symbol id="icon-forward" viewBox="0 0 20 20">
<path d="M12 11.874v4.357l7-6.69-7-6.572v3.983c-8.775 0-11 9.732-11 9.732 2.484-4.388 6.237-4.81 11-4.81z"></path>
</symbol>
<symbol id="icon-globe" viewBox="0 0 20 20">
<path d="M10 0.4c-5.295 0-9.601 4.307-9.601 9.6s4.306 9.6 9.601 9.6c5.293 0 9.6-4.307 9.6-9.6s-4.307-9.6-9.6-9.6zM18.188 10c0 1.873-0.636 3.6-1.696 4.98-0.3-0.234-0.619-0.867-0.319-1.523 0.303-0.66 0.382-2.188 0.312-2.783-0.066-0.594-0.375-2.025-1.214-2.039-0.838-0.012-1.413-0.289-1.911-1.283-1.033-2.068 1.939-2.465 0.906-3.609-0.289-0.322-1.783 1.322-2.002-0.869-0.014-0.157 0.135-0.392 0.336-0.636 3.244 1.090 5.588 4.157 5.588 7.762zM8.875 1.893c-0.196 0.382-0.713 0.537-1.027 0.824-0.684 0.619-0.978 0.533-1.346 1.127-0.371 0.594-1.567 1.449-1.567 1.879s0.604 0.936 0.906 0.838c0.302-0.1 1.099-0.094 1.567 0.070 0.469 0.166 3.914 0.332 2.816 3.244-0.348 0.926-1.873 0.77-2.279 2.303-0.061 0.225-0.272 1.186-0.285 1.5-0.025 0.486 0.344 2.318-0.125 2.318-0.471 0-1.738-1.639-1.738-1.936s-0.328-1.338-0.328-2.23c0-0.891-1.518-0.877-1.518-2.062 0-1.068 0.823-1.6 0.638-2.113-0.181-0.51-1.627-0.527-2.23-0.59 1.053-2.731 3.53-4.758 6.516-5.172zM7.424 17.77c0.492-0.26 0.542-0.596 0.988-0.613 0.51-0.023 0.925-0.199 1.5-0.326 0.51-0.111 1.423-0.629 2.226-0.695 0.678-0.055 2.015 0.035 2.375 0.689-1.295 0.861-2.848 1.363-4.514 1.363-0.899 0-1.765-0.149-2.575-0.418z"></path>
</symbol>
<symbol id="icon-heart" viewBox="0 0 20 20">
<path d="M17.19 4.155c-1.672-1.534-4.383-1.534-6.055 0l-1.135 1.042-1.136-1.042c-1.672-1.534-4.382-1.534-6.054 0-1.881 1.727-1.881 4.52 0 6.246l7.19 6.599 7.19-6.599c1.88-1.726 1.88-4.52 0-6.246z"></path>
</symbol>
<symbol id="icon-ruler" viewBox="0 0 20 20">
<path d="M14.249 0.438l-13.811 13.813c-0.584 0.584-0.584 1.538 0.002 2.124l3.185 3.187c0.584 0.584 1.541 0.586 2.124 0.002l13.813-13.813c0.584-0.585 0.584-1.541 0-2.125l-3.186-3.188c-0.587-0.586-1.542-0.583-2.127 0zM3.929 15.312l-0.759 0.759-1.896-1.897 0.759-0.759 1.896 1.897zM6.965 15.312l-0.759 0.759-3.415-3.415 0.759-0.76 3.415 3.416zM6.965 12.276l-0.759 0.759-1.898-1.896 0.76-0.76 1.897 1.897zM8.483 10.758l-0.759 0.759-1.896-1.896 0.759-0.76 1.896 1.897zM11.518 10.758l-0.759 0.759-3.414-3.414 0.759-0.759 3.414 3.414zM11.518 7.723l-0.759 0.759-1.896-1.896 0.759-0.759 1.896 1.896zM13.036 6.206l-0.759 0.759-1.897-1.897 0.759-0.759 1.897 1.897zM16.072 6.206l-0.76 0.759-3.414-3.415 0.759-0.76 3.415 3.416zM16.071 3.171l-0.759 0.759-1.896-1.898 0.759-0.758 1.896 1.897z"></path>
</symbol>
<symbol id="icon-lab-flask" viewBox="0 0 20 20">
<path d="M16.432 15c-2.045-5.107-4.432-6.453-4.432-9v-3h0.5c0.276 0 0.5-0.224 0.5-0.5v-1c0-0.276-0.224-0.5-0.5-0.5h-5c-0.276 0-0.5 0.224-0.5 0.5v1c0 0.276 0.224 0.5 0.5 0.5h0.5v3c0 2.547-2.387 3.893-4.432 9-0.651 1.625-2.323 4 6.432 4s7.083-2.375 6.432-4zM14.815 16.751c-0.702 0.21-2.099 0.449-4.815 0.449s-4.113-0.239-4.815-0.449c-0.249-0.074-0.346-0.363-0.258-0.628 0.22-0.67 0.635-1.828 1.411-3.121 1.896-3.159 3.863 0.497 5.5 0.497s1.188-1.561 1.824-0.497c0.774 1.294 1.191 2.451 1.411 3.121 0.088 0.265-0.009 0.553-0.258 0.628z"></path>
</symbol>
<symbol id="icon-etsy" viewBox="0 0 24 28">
<path d="M8.094 2.859v10.234c3.625 0.031 5.531-0.156 5.531-0.156 1.469-0.047 1.687-0.422 2.031-1.859l0.516-2.219h1.609l-0.219 5.031 0.109 4.984h-1.609l-0.453-1.984c-0.328-1.484-0.969-1.844-2.016-1.859 0 0-1.344-0.125-5.5-0.125v8.687c0 1.625 0.891 2.391 2.766 2.391h5.578c1.875 0 3.563-0.187 4.719-2.859l1.453-3.375h1.391c-0.109 0.672-0.859 6.875-0.969 8.25-5.141-0.187-7.344-0.187-7.344-0.187h-9.812l-5.875 0.187v-1.594l1.984-0.391c1.391-0.266 1.813-0.672 1.828-1.813 0.094-3.781 0.125-10.047 0.125-10.047s0.047-6.281-0.125-10.078c-0.047-1.297-0.438-1.609-1.828-1.875l-1.984-0.375v-1.594l5.875 0.187h10.969s2.172 0 5.844-0.422c-0.219 2.391-0.484 7.906-0.484 7.906h-1.453l-0.5-1.937c-0.609-2.422-1.422-3.719-2.922-3.719h-8.563c-0.641 0-0.672 0.219-0.672 0.609z"></path>
</symbol>
<symbol id="icon-mail" viewBox="0 0 20 20">
<path d="M1.574 5.286c0.488 0.262 7.248 3.894 7.5 4.029s0.578 0.199 0.906 0.199c0.328 0 0.654-0.064 0.906-0.199s7.012-3.767 7.5-4.029c0.489-0.263 0.951-1.286 0.054-1.286h-16.919c-0.897 0-0.435 1.023 0.053 1.286zM18.613 7.489c-0.555 0.289-7.387 3.849-7.727 4.027s-0.578 0.199-0.906 0.199-0.566-0.021-0.906-0.199-7.133-3.739-7.688-4.028c-0.39-0.204-0.386 0.035-0.386 0.219s0 7.293 0 7.293c0 0.42 0.566 1 1 1h16c0.434 0 1-0.58 1-1 0 0 0-7.108 0-7.292s0.004-0.423-0.387-0.219z"></path>
</symbol>
</defs>
</svg>
